<?xml version="1.0" standalone="no"?><!-- Generator: Gravit.io --><svg xmlns="http://www.w3.org/2000/svg" xmlns:xlink="http://www.w3.org/1999/xlink" style="isolation:isolate" viewBox="0 0 1650 1000" width="1650" height="1000"><path d=" M 1623.454 50.803 C 1576.413 -29.881 1329.053 22.737 1020.723 164.808 C 1036.39 177.09 1052.071 191.123 1064.263 205.157 C 1301.181 103.422 1484.081 71.853 1522.406 138.505 C 1565.946 213.924 1393.513 401.597 1116.531 587.518 L 1120.02 591.033 C 1457.96 370.015 1675.709 141.994 1623.454 50.803 Z  M 163.655 927.767 C 137.521 880.401 193.278 790.949 304.753 683.974 C 296.05 682.21 287.335 678.709 278.632 675.194 C 276.881 675.194 276.881 673.443 276.881 673.443 L 250.747 662.911 C 116.614 787.447 48.665 892.671 80.026 948.804 C 118.365 1013.679 283.833 992.655 505.071 910.219 L 503.333 906.704 C 325.66 968.103 195.016 980.385 163.655 927.767 Z " fill-rule="evenodd" fill="rgb(31,87,150)"/><path d=" M 24.295 382.285 C 24.295 191.11 275.143 35.006 583.473 35.006 C 893.554 35.006 1144.403 191.11 1144.403 382.285 C 1144.403 575.223 893.554 731.327 583.473 731.327 C 275.143 731.327 24.295 575.223 24.295 382.285 Z  M 341.341 112.189 L 447.589 475.265 L 559.077 64.837 C 480.688 68.339 405.788 84.123 341.341 112.189 Z  M 553.863 263.015 L 496.368 475.252 L 613.083 475.252 L 553.863 263.015 Z  M 719.345 475.252 L 820.379 108.675 C 754.181 82.359 679.281 66.575 600.892 64.824 L 719.345 475.252 Z  M 339.59 475.252 L 282.108 263.015 L 224.626 475.252 L 339.59 475.252 Z  M 1003.292 517.339 C 1031.164 477.003 1046.844 431.401 1046.844 382.285 C 1046.844 289.33 989.349 206.895 895.279 147.26 L 1003.292 517.339 L 1003.292 517.339 Z  M 884.839 475.252 L 825.619 263.015 L 768.124 475.252 L 884.839 475.252 L 884.839 475.252 Z  M 897.03 517.339 L 755.932 517.339 L 743.741 562.941 L 776.84 671.692 C 830.846 655.908 879.612 631.356 919.676 601.539 L 897.03 517.339 L 897.03 517.339 Z  M 393.596 671.692 L 351.794 517.352 L 212.434 517.352 L 200.23 561.203 C 249.009 610.319 315.207 648.904 393.596 673.456 L 393.596 671.692 Z  M 625.288 517.339 L 484.177 517.339 L 438.886 685.725 C 484.177 696.244 532.943 701.509 583.46 701.509 C 614.821 701.509 644.431 699.759 674.054 694.493 L 625.288 517.339 L 625.288 517.339 Z  M 262.952 154.276 C 175.847 212.16 121.853 292.845 121.853 382.285 C 121.853 431.401 137.534 475.252 163.668 515.588 L 262.952 154.276 Z " fill-rule="evenodd" fill="rgb(204,33,50)"/></svg>