<?xml version="1.0" standalone="no"?><!-- Generator: Gravit.io --><svg xmlns="http://www.w3.org/2000/svg" xmlns:xlink="http://www.w3.org/1999/xlink" style="isolation:isolate" viewBox="0 0 512 325" width="512" height="325"><g/><g><path d=" M 416.646 120.448 C 364.067 120.448 321.291 163.224 321.291 215.802 L 321.291 336.251 C 321.291 344.566 328.033 351.306 336.347 351.306 L 416.646 351.306 C 424.961 351.306 431.701 344.565 431.701 336.251 L 431.701 135.505 C 431.702 127.189 424.961 120.448 416.646 120.448 Z " fill="rgb(38,129,96)"/><path d=" M 130.393 21.005 C 124.475 23.187 120.544 28.824 120.544 35.131 L 120.544 336.252 C 120.544 344.567 127.286 351.307 135.6 351.307 L 215.899 351.307 C 224.214 351.307 230.954 344.566 230.954 336.252 L 230.954 252.936 C 230.954 169.585 201.157 88.762 147.052 25.358 C 142.959 20.559 136.306 18.823 130.393 21.005 Z " fill="rgb(155,241,141)"/><path d=" M 23.503 163.126 C 18.883 160.045 12.943 159.759 8.047 162.379 C 3.152 164.998 0.096 170.101 0.096 175.653 L 0.096 336.251 C 0.096 344.566 6.837 351.306 15.152 351.306 L 75.376 351.306 C 83.691 351.306 90.432 344.565 90.432 336.251 L 90.432 288.183 C 90.432 237.815 65.412 191.065 23.503 163.126 Z " fill="rgb(155,241,141)"/><path d=" M 504.86 162.845 C 500.421 160.102 494.878 159.853 490.212 162.186 C 463.562 175.511 441.197 195.949 425.533 221.295 C 409.869 246.641 401.59 275.785 401.59 305.579 L 401.59 336.251 C 401.59 344.566 408.331 351.306 416.646 351.306 L 496.944 351.306 C 505.26 351.306 512 344.565 512 336.251 L 512 175.653 C 512.001 170.435 509.3 165.589 504.86 162.845 Z " fill="rgb(69,182,126)"/><path d=" M 75.376 120.448 C 67.06 120.448 60.32 127.189 60.32 135.504 L 60.32 336.251 C 60.32 344.566 67.061 351.306 75.376 351.306 L 135.6 351.306 C 143.915 351.306 150.656 344.565 150.656 336.251 L 150.656 195.728 C 150.656 154.219 116.886 120.448 75.376 120.448 Z " fill="rgb(116,220,131)"/><path d=" M 342.733 1.421 C 337.441 -1.057 331.197 -0.249 326.708 3.49 C 246.719 70.148 200.843 168.095 200.843 272.218 L 200.843 336.252 C 200.843 344.567 207.584 351.307 215.899 351.307 L 336.347 351.307 C 344.662 351.307 351.403 344.566 351.403 336.252 L 351.403 15.056 C 351.403 9.214 348.023 3.9 342.733 1.421 Z " fill="rgb(69,182,126)"/><path d=" M 256.048 83.465 C 220.333 139.127 200.843 204.359 200.843 272.218 L 200.843 336.252 C 200.843 344.567 207.584 351.307 215.899 351.307 L 256.048 351.307 L 256.048 83.465 Z " fill="rgb(116,220,131)"/></g></svg>